<svg width="18" height="16" viewBox="0 0 18 16" fill="none" xmlns="http://www.w3.org/2000/svg">
<path d="M6.501 15.5001C7.19137 15.5001 7.75103 14.9404 7.75103 14.25C7.75103 13.5597 7.19137 13 6.501 13C5.81063 13 5.25098 13.5597 5.25098 14.25C5.25098 14.9404 5.81063 15.5001 6.501 15.5001Z" fill="#7649B3"/>
<path d="M15.2505 15.5001C15.9409 15.5001 16.5005 14.9404 16.5005 14.25C16.5005 13.5597 15.9409 13 15.2505 13C14.5601 13 14.0005 13.5597 14.0005 14.25C14.0005 14.9404 14.5601 15.5001 15.2505 15.5001Z" fill="#7649B3"/>
<path d="M17.4696 2.71801C17.3818 2.61061 17.2711 2.5241 17.1457 2.46478C17.0203 2.40545 16.8833 2.3748 16.7446 2.37504H4.85565L4.61619 1.01642C4.59066 0.871698 4.51495 0.740604 4.40236 0.646162C4.28977 0.55172 4.14751 0.499969 4.00055 0.5H1.5005C1.33474 0.5 1.17576 0.565849 1.05855 0.683062C0.941338 0.800275 0.875488 0.959249 0.875488 1.12501C0.875488 1.29078 0.941338 1.44975 1.05855 1.56696C1.17576 1.68418 1.33474 1.75003 1.5005 1.75003H3.47632L5.25995 11.8588C5.28549 12.0035 5.3612 12.1346 5.47378 12.2291C5.58637 12.3235 5.72864 12.3753 5.87559 12.3752H15.8758C16.0416 12.3752 16.2005 12.3094 16.3177 12.1922C16.435 12.075 16.5008 11.916 16.5008 11.7502C16.5008 11.5845 16.435 11.4255 16.3177 11.3083C16.2005 11.1911 16.0416 11.1252 15.8758 11.1252H6.39982L6.1795 9.87519H15.6195C15.8363 9.87491 16.0463 9.79976 16.214 9.66245C16.3817 9.52513 16.4968 9.33409 16.5399 9.12166L17.6649 3.49654C17.692 3.36041 17.6885 3.21995 17.6548 3.08532C17.621 2.95068 17.5577 2.82523 17.4696 2.71801Z" fill="white"/>
</svg>
