<svg width="27" height="16" viewBox="0 0 27 16" fill="none" xmlns="http://www.w3.org/2000/svg">
<path fill-rule="evenodd" clip-rule="evenodd" d="M12.9015 5.63108C12.2628 5.70768 11.6153 5.65673 10.9965 5.48115C10.9279 5.46176 10.8678 5.42113 10.8238 5.36502C10.7798 5.30892 10.7547 5.24025 10.7522 5.16898C10.7497 5.09771 10.7699 5.02752 10.8099 4.96846C10.8498 4.90939 10.9075 4.86452 10.9746 4.84035C11.8435 4.52812 12.6682 4.10463 13.4283 3.58043C13.644 3.43161 13.8921 3.33621 14.1519 3.30212C14.4118 3.26804 14.6761 3.29623 14.9229 3.38438L17.319 4.2403L19.1481 3.57128L22.2045 8.46399L20.6143 9.92346C20.5377 9.79467 20.439 9.68038 20.3227 9.58589L14.7169 5.03488C14.1572 5.35181 13.5401 5.55448 12.9015 5.63108ZM11.404 12.0266C11.467 12.2118 11.4879 12.4087 11.4652 12.603C11.7137 12.5386 11.9756 12.5482 12.2187 12.6308C12.4618 12.7135 12.6754 12.8654 12.8333 13.0678C12.9911 13.2703 13.0863 13.5145 13.1072 13.7704C13.128 14.0263 13.0736 14.2826 12.9505 14.508L14.1397 15.3624C14.2977 15.476 14.4944 15.5221 14.6864 15.4907C14.8784 15.4592 15.0501 15.3528 15.1636 15.1948C15.2772 15.0368 15.3233 14.8401 15.2918 14.6481C15.2604 14.4561 15.154 14.2844 14.9959 14.1709L12.6774 12.5049C12.6251 12.4669 12.5901 12.4096 12.5798 12.3458C12.5696 12.282 12.585 12.2166 12.6228 12.1641C12.6605 12.1116 12.7175 12.0762 12.7812 12.0655C12.845 12.0548 12.9104 12.0699 12.9632 12.1072L15.9929 14.284C16.1711 14.4083 16.391 14.4575 16.6052 14.4209C16.8193 14.3843 17.0104 14.2648 17.1371 14.0884C17.2639 13.912 17.316 13.6927 17.2824 13.4781C17.2487 13.2635 17.1319 13.0707 16.9572 12.9416L13.7359 10.6269C13.6849 10.5884 13.6509 10.5315 13.6413 10.4683C13.6317 10.405 13.6472 10.3406 13.6845 10.2886C13.7218 10.2367 13.7779 10.2013 13.8409 10.1902C13.9039 10.1791 13.9687 10.1931 14.0215 10.2292L17.6718 12.8519C17.8498 12.9798 18.0714 13.0318 18.2877 12.9964C18.5041 12.961 18.6975 12.841 18.8254 12.663C18.9533 12.485 19.0053 12.2634 18.9699 12.047C18.9345 11.8307 18.8146 11.6373 18.6366 11.5094L14.7695 8.73104C14.7172 8.69295 14.6822 8.63573 14.672 8.57189C14.6617 8.50805 14.6772 8.4428 14.7149 8.3903C14.7526 8.33779 14.8096 8.30233 14.8733 8.29165C14.9371 8.28098 15.0025 8.29594 15.0553 8.3333L19.0615 11.2116C19.2272 11.3302 19.4325 11.3796 19.634 11.3495C19.8354 11.3193 20.0173 11.2119 20.1409 11.05C20.2646 10.8881 20.3204 10.6845 20.2966 10.4822C20.2728 10.2799 20.1711 10.0947 20.0132 9.96604L14.6578 5.61838C13.4765 6.19181 12.1255 6.31061 10.8623 5.95224C10.6939 5.90449 10.545 5.80449 10.437 5.6667C10.3291 5.52891 10.2677 5.36046 10.2617 5.18553C10.2557 5.0106 10.3054 4.83824 10.4035 4.69335C10.5017 4.54846 10.6434 4.43853 10.8081 4.37931C11.4864 4.13555 12.137 3.82056 12.7489 3.43962C11.9747 3.33204 11.1863 3.39695 10.4402 3.62975C9.38891 3.72437 8.33307 3.75923 7.27781 3.73418L4.07141 9.01086L4.84036 9.57539L5.68307 8.87973C5.87465 8.7216 6.10706 8.62092 6.35345 8.5893C6.59983 8.55769 6.85014 8.59646 7.07544 8.7011C7.30073 8.80573 7.49182 8.97196 7.62662 9.18061C7.76142 9.38926 7.83443 9.63181 7.83721 9.8802L7.92518 9.80778C8.1387 9.63148 8.40239 9.52702 8.67873 9.50924C8.95506 9.49146 9.22997 9.56125 9.46433 9.70873C9.69869 9.85621 9.88058 10.0738 9.98411 10.3307C10.0876 10.5875 10.1075 10.8704 10.041 11.1392C10.2358 11.1219 10.432 11.1482 10.6154 11.2162C10.7988 11.2842 10.9648 11.3922 11.1012 11.5324C11.2376 11.6726 11.341 11.8414 11.404 12.0266ZM6.07263 11.3377L7.04865 10.5323C7.21628 10.3923 7.3217 10.1916 7.34188 9.97414C7.36205 9.75669 7.29534 9.54011 7.15632 9.37168C7.0173 9.20326 6.81727 9.09669 6.59993 9.07527C6.38259 9.05386 6.16561 9.11936 5.99639 9.25742L5.0206 10.0629C4.85485 10.2034 4.75111 10.4035 4.73184 10.62C4.71256 10.8364 4.7793 11.0518 4.91761 11.2194C5.05592 11.387 5.25467 11.4934 5.47084 11.5155C5.68701 11.5377 5.9032 11.4738 6.07263 11.3377ZM9.58231 10.9019C9.56214 11.1193 9.45672 11.32 9.28908 11.4599L7.52517 12.916C7.35595 13.054 7.13897 13.1195 6.92163 13.0981C6.70429 13.0767 6.50426 12.9701 6.36524 12.8017C6.22622 12.6333 6.15951 12.4166 6.17968 12.1992C6.19986 11.9817 6.30528 11.7811 6.47291 11.6411L8.23683 10.1851C8.40604 10.0471 8.62302 9.98159 8.84036 10.003C9.0577 10.0244 9.25773 10.131 9.39676 10.2994C9.53578 10.4678 9.60249 10.6844 9.58231 10.9019ZM9.30479 14.2272L10.685 13.0879C10.8527 12.948 10.9581 12.7473 10.9782 12.5299C10.9984 12.3124 10.9317 12.0958 10.7927 11.9273C10.6537 11.7589 10.4536 11.6524 10.2363 11.6309C10.019 11.6095 9.80198 11.675 9.63276 11.8131L8.25253 12.9523C8.08477 13.0923 7.97924 13.2929 7.959 13.5105C7.93876 13.728 8.00547 13.9447 8.14454 14.1132C8.2836 14.2817 8.48372 14.3882 8.70114 14.4096C8.91856 14.431 9.13559 14.3654 9.30479 14.2272ZM10.3552 13.9952L11.2699 13.2403C11.4389 13.1008 11.6565 13.0341 11.8746 13.055C12.0928 13.0759 12.2938 13.1826 12.4333 13.3517C12.5728 13.5207 12.6395 13.7382 12.6186 13.9564C12.5978 14.1746 12.4911 14.3756 12.3221 14.5151L11.4074 15.2701C11.2383 15.4087 11.0211 15.4747 10.8034 15.4535C10.5857 15.4323 10.3853 15.3257 10.246 15.157C10.1068 14.9883 10.0401 14.7713 10.0606 14.5535C10.081 14.3358 10.187 14.135 10.3552 13.9952Z" fill="white"/>
<path d="M7.58329 2.28996L2.98741 9.85299L0.0419922 8.06303L4.63764 0.5L7.58329 2.28996Z" fill="#7649B3"/>
<path d="M21.9445 0.614258L26.3004 7.58708L23.3753 9.41435L19.0194 2.44153L21.9445 0.614258Z" fill="#7649B3"/>
</svg>
