<svg width="17" height="18" viewBox="0 0 17 18" fill="none" xmlns="http://www.w3.org/2000/svg">
<circle cx="8.94214" cy="8.8125" r="3.9375" fill="#7649B3"/>
<path d="M16.1352 10.9552C15.975 10.7077 15.7474 10.4602 15.4523 10.3035C15.2162 10.188 15.0645 9.99825 14.9296 9.7755C14.4996 9.066 14.7525 8.13375 15.4692 7.713C16.3123 7.24275 16.5821 6.195 16.0931 5.37825L15.5282 4.40475C15.0476 3.588 13.9937 3.29925 13.159 3.77775C12.4171 4.17375 11.4644 3.90975 11.0344 3.2085C10.8995 2.9775 10.8236 2.73 10.8405 2.4825C10.8658 2.16075 10.7646 1.8555 10.6128 1.608C10.3009 1.0965 9.73598 0.75 9.11207 0.75H7.92328C7.30781 0.7665 6.74292 1.0965 6.43097 1.608C6.27078 1.8555 6.17803 2.16075 6.1949 2.4825C6.21176 2.73 6.13588 2.9775 6.00098 3.2085C5.57099 3.90975 4.61827 4.17375 3.88476 3.77775C3.04165 3.29925 1.99618 3.588 1.50718 4.40475L0.94229 5.37825C0.461715 6.195 0.731511 7.24275 1.56619 7.713C2.28284 8.13375 2.53578 9.066 2.11422 9.7755C1.97089 9.99825 1.81913 10.188 1.58306 10.3035C1.2964 10.4602 1.04346 10.7077 0.908565 10.9552C0.596613 11.4668 0.613475 12.1102 0.925428 12.6465L1.50718 13.6365C1.81913 14.1645 2.40088 14.4945 3.00792 14.4945C3.29458 14.4945 3.63183 14.412 3.90162 14.247C4.1124 14.1068 4.36534 14.0572 4.64356 14.0572C5.47825 14.0572 6.17803 14.742 6.1949 15.5588C6.1949 16.5075 6.97056 17.25 7.94857 17.25H9.09521C10.0648 17.25 10.8405 16.5075 10.8405 15.5588C10.8658 14.742 11.5655 14.0572 12.4002 14.0572C12.67 14.0572 12.923 14.1068 13.1422 14.247C13.412 14.412 13.7408 14.4945 14.0359 14.4945C14.6345 14.4945 15.2162 14.1645 15.5282 13.6365L16.1184 12.6465C16.4219 12.0938 16.4472 11.4668 16.1352 10.9552Z" fill="white"/>
<path d="M8.53662 12C6.83275 12 5.45447 10.6726 5.45447 9.00531C5.45447 7.33805 6.83275 6 8.53662 6C10.2405 6 11.5862 7.33805 11.5862 9.00531C11.5862 10.6726 10.2405 12 8.53662 12Z" fill="#7649B3"/>
<path d="M8.53662 12C6.83275 12 5.45447 10.6726 5.45447 9.00531C5.45447 7.33805 6.83275 6 8.53662 6C10.2405 6 11.5862 7.33805 11.5862 9.00531C11.5862 10.6726 10.2405 12 8.53662 12" stroke="#08B564" stroke-width="1.125"/>
</svg>
