<svg width="17" height="17" viewBox="0 0 17 17" fill="none" xmlns="http://www.w3.org/2000/svg">
<ellipse cx="9.13086" cy="8.375" rx="4.96875" ry="7.125" fill="#7649B3"/>
<path fill-rule="evenodd" clip-rule="evenodd" d="M8.48889 0.125C3.93489 0.125 0.238892 3.821 0.238892 8.375C0.238892 12.929 3.93489 16.625 8.48889 16.625C13.0429 16.625 16.7389 12.929 16.7389 8.375C16.7389 3.821 13.0429 0.125 8.48889 0.125ZM9.31389 14.15H7.66389V12.5H9.31389V14.15ZM11.0216 7.75625L10.2791 8.51525C9.68514 9.1175 9.31389 9.6125 9.31389 10.85H7.66389V10.4375C7.66389 9.53 8.03514 8.705 8.62914 8.10275L9.65214 7.06325C9.95739 6.76625 10.1389 6.35375 10.1389 5.9C10.1389 4.9925 9.39639 4.25 8.48889 4.25C7.58139 4.25 6.83889 4.9925 6.83889 5.9H5.18889C5.18889 4.07675 6.66564 2.6 8.48889 2.6C10.3121 2.6 11.7889 4.07675 11.7889 5.9C11.7889 6.626 11.4919 7.286 11.0216 7.75625Z" fill="white"/>
</svg>
