<svg width="16" height="16" viewBox="0 0 16 16" fill="none" xmlns="http://www.w3.org/2000/svg">
<rect x="2.28931" y="2.40723" width="11.3438" height="9.28125" fill="#7649B3"/>
<path d="M15.3146 2.55109V10.7737C15.3146 11.8887 14.4087 12.7946 13.2938 12.7946H11.2498V15.1173C11.2498 15.489 10.8084 15.6748 10.5529 15.3961L7.95142 12.8178C7.95142 12.8178 7.95142 12.7946 7.92819 12.7946H2.39997C1.28503 12.7946 0.37915 11.8887 0.37915 10.7737V2.55109C0.37915 1.43616 1.28503 0.530273 2.39997 0.530273H13.317C14.4087 0.530273 15.3146 1.43616 15.3146 2.55109ZM11.3891 10.495C11.3891 8.47418 10.2742 6.77855 8.74116 6.314C9.32186 5.98881 9.71673 5.40811 9.71673 4.68805C9.71673 3.66603 8.88053 2.82983 7.8585 2.82983C6.83648 2.82983 6.00028 3.66603 6.00028 4.68805C6.00028 5.38488 6.39515 5.98881 6.97585 6.314C5.44281 6.80178 4.32788 8.47418 4.32788 10.495H11.3891Z" fill="white"/>
</svg>
