<svg width="17" height="16" viewBox="0 0 17 16" fill="none" xmlns="http://www.w3.org/2000/svg">
<g clip-path="url(#clip0_238_4000)">
<path fill-rule="evenodd" clip-rule="evenodd" d="M8.5 0C12.9183 0 16.5 3.58173 16.5 8C16.5 12.4183 12.9183 16 8.5 16C4.08173 16 0.5 12.4183 0.5 8C0.5 3.58173 4.08173 0 8.5 0Z" fill="#FA8232"/>
<path d="M9.54119 15.933V9.75237H11.2847L11.5158 7.5771H9.54119L9.54412 6.48827C9.54412 5.92091 9.59805 5.61705 10.4135 5.61705H11.5035V3.44141H9.75968C7.66499 3.44141 6.92783 4.4966 6.92783 6.27136V7.57726H5.62207V9.75274H6.92783V15.8453C7.43653 15.9466 7.96243 16.0001 8.50089 16.0001C8.84875 16.0001 9.19623 15.9777 9.54119 15.933Z" fill="white"/>
</g>
<defs>
<clipPath id="clip0_238_4000">
<rect width="16" height="16" fill="white" transform="translate(0.5)"/>
</clipPath>
</defs>
</svg>
