<svg width="17" height="16" viewBox="0 0 17 16" fill="none" xmlns="http://www.w3.org/2000/svg">
<g clip-path="url(#clip0_238_4005)">
<path d="M7.52406 0.0530204C4.8652 0.349837 2.21572 2.50098 2.10636 5.57382C2.03762 7.45001 2.57033 8.85755 4.35592 9.25278C5.13077 7.88586 4.10597 7.58436 3.94663 6.59549C3.29207 2.54316 8.62072 -0.220364 11.4092 2.60877C13.3386 4.56776 12.0685 10.5947 8.95659 9.96827C5.97592 9.36995 10.4157 4.57245 8.03646 3.63045C6.10246 2.86497 5.07453 5.97218 5.99154 7.51563C5.45415 10.1698 4.29656 12.6709 4.76522 15.9999C6.28524 14.897 6.79764 12.7849 7.21787 10.5822C7.98178 11.0462 8.38951 11.5289 9.36432 11.6039C12.9589 11.882 14.9664 8.01553 14.4758 4.44904C14.04 1.28715 10.8843 -0.321906 7.52406 0.0530204Z" fill="#5F6C72"/>
</g>
<defs>
<clipPath id="clip0_238_4005">
<rect width="16" height="16" fill="white" transform="translate(0.5)"/>
</clipPath>
</defs>
</svg>
