<svg width="17" height="16" viewBox="0 0 17 16" fill="none" xmlns="http://www.w3.org/2000/svg">
<g clip-path="url(#clip0_238_4003)">
<path d="M5.53184 14.5024C11.5699 14.5024 14.8718 9.49713 14.8718 5.15673C14.8718 5.01458 14.8689 4.87308 14.8625 4.73217C15.505 4.26699 16.0595 3.69103 16.5 3.03128C15.9118 3.29294 15.2789 3.46904 14.6149 3.54844C15.2926 3.14181 15.8129 2.49851 16.0584 1.73169C15.414 2.11419 14.7091 2.38382 13.9739 2.52898C13.3749 1.89052 12.5221 1.49121 11.5778 1.49121C9.76494 1.49121 8.29489 2.96219 8.29489 4.7754C8.29489 5.03319 8.32374 5.28385 8.38006 5.52436C5.65177 5.38699 3.23252 4.07995 1.61343 2.09252C1.32182 2.59379 1.16843 3.16349 1.16894 3.74345C1.16894 4.88304 1.74846 5.88903 2.62976 6.47759C2.10846 6.46166 1.5986 6.32077 1.14306 6.06676C1.14257 6.08055 1.14257 6.09399 1.14257 6.10872C1.14257 7.69944 2.27408 9.02759 3.77613 9.32854C3.49402 9.40542 3.20292 9.44428 2.91054 9.44411C2.69938 9.44411 2.49359 9.42333 2.29359 9.38491C2.71151 10.69 3.92335 11.6397 5.36013 11.6663C4.23659 12.5474 2.82127 13.0723 1.28302 13.0723C1.02135 13.0725 0.759888 13.0573 0.5 13.0267C1.95281 13.9585 3.67789 14.5022 5.532 14.5022" fill="#5F6C72"/>
</g>
<defs>
<clipPath id="clip0_238_4003">
<rect width="16" height="16" fill="white" transform="translate(0.5)"/>
</clipPath>
</defs>
</svg>
