<svg width="33" height="32" viewBox="0 0 33 32" fill="none" xmlns="http://www.w3.org/2000/svg">
<path d="M28.2483 25.8356C15.2947 32.0004 7.25561 26.8425 2.10952 23.7097C1.79108 23.5123 1.24984 23.7559 1.71944 24.2953C3.43386 26.374 9.05238 31.3845 16.3862 31.3845C23.725 31.3845 28.091 27.3801 28.6371 26.6815C29.1796 25.9889 28.7964 25.6068 28.2482 25.8356H28.2483ZM31.8863 23.8265C31.5384 23.3736 29.771 23.2891 28.6588 23.4258C27.5448 23.5584 25.8727 24.2393 26.0181 24.6481C26.0927 24.8012 26.245 24.7325 27.0102 24.6637C27.7776 24.5871 29.9272 24.3158 30.3752 24.9014C30.8252 25.491 29.6896 28.2997 29.4821 28.7527C29.2818 29.2056 29.5587 29.3225 29.9351 29.0208C30.3064 28.7192 30.9785 27.9382 31.4295 26.8329C31.8774 25.7217 32.1505 24.1714 31.8861 23.8265H31.8863Z" fill="#FF9900"/>
<path fill-rule="evenodd" clip-rule="evenodd" d="M19.5383 13.256C19.5383 14.8735 19.5791 16.2225 18.7616 17.659C18.1017 18.827 17.0564 19.5452 15.8885 19.5452C14.2942 19.5452 13.3657 18.3306 13.3657 16.5378C13.3657 12.999 16.5366 12.3567 19.5383 12.3567V13.256ZM23.7252 23.3761C23.4507 23.6213 23.0536 23.6389 22.7442 23.4753C21.366 22.3308 21.1207 21.7994 20.3616 20.7073C18.0842 23.0315 16.4724 23.7264 13.5176 23.7264C10.0255 23.7264 7.3042 21.5716 7.3042 17.2561C7.3042 13.8867 9.13211 11.5917 11.7306 10.4705C13.9847 9.47768 17.1323 9.30252 19.5383 9.02815V8.49086C19.5383 7.50391 19.6141 6.33602 19.036 5.48348C18.5279 4.71847 17.5586 4.40311 16.7059 4.40311C15.1235 4.40311 13.7102 5.21478 13.3657 6.89658C13.2956 7.2704 13.0212 7.63833 12.6475 7.6558L8.61808 7.22375C8.27945 7.14768 7.90575 6.87331 7.99917 6.3535C8.92765 1.47168 13.3364 0 17.284 0C19.3045 0 21.944 0.537295 23.5382 2.06732C25.5588 3.95346 25.366 6.47031 25.366 9.2091V15.6794C25.366 17.624 26.1719 18.4765 26.931 19.5277C27.1996 19.9014 27.2581 20.3512 26.9193 20.6314C26.0726 21.3379 24.5659 22.6519 23.7368 23.3878L23.7251 23.3761" fill="black"/>
<path d="M28.2483 25.8356C15.2947 32.0004 7.25561 26.8425 2.10952 23.7097C1.79108 23.5123 1.24984 23.7559 1.71944 24.2953C3.43386 26.374 9.05238 31.3845 16.3862 31.3845C23.725 31.3845 28.091 27.3801 28.6371 26.6815C29.1796 25.9889 28.7964 25.6068 28.2482 25.8356H28.2483ZM31.8863 23.8265C31.5384 23.3736 29.771 23.2891 28.6588 23.4258C27.5448 23.5584 25.8727 24.2393 26.0181 24.6481C26.0927 24.8012 26.245 24.7325 27.0102 24.6637C27.7776 24.5871 29.9272 24.3158 30.3752 24.9014C30.8252 25.491 29.6896 28.2997 29.4821 28.7527C29.2818 29.2056 29.5587 29.3225 29.9351 29.0208C30.3064 28.7192 30.9785 27.9382 31.4295 26.8329C31.8774 25.7217 32.1505 24.1714 31.8861 23.8265H31.8863Z" fill="#FF9900"/>
<path fill-rule="evenodd" clip-rule="evenodd" d="M19.5383 13.256C19.5383 14.8735 19.5791 16.2225 18.7616 17.659C18.1017 18.827 17.0564 19.5452 15.8885 19.5452C14.2942 19.5452 13.3657 18.3306 13.3657 16.5378C13.3657 12.999 16.5366 12.3567 19.5383 12.3567V13.256ZM23.7252 23.3761C23.4507 23.6213 23.0536 23.6389 22.7442 23.4753C21.366 22.3308 21.1207 21.7994 20.3616 20.7073C18.0842 23.0315 16.4724 23.7264 13.5176 23.7264C10.0255 23.7264 7.3042 21.5716 7.3042 17.2561C7.3042 13.8867 9.13211 11.5917 11.7306 10.4705C13.9847 9.47768 17.1323 9.30252 19.5383 9.02815V8.49086C19.5383 7.50391 19.6141 6.33602 19.036 5.48348C18.5279 4.71847 17.5586 4.40311 16.7059 4.40311C15.1235 4.40311 13.7102 5.21478 13.3657 6.89658C13.2956 7.2704 13.0212 7.63833 12.6475 7.6558L8.61808 7.22375C8.27945 7.14768 7.90575 6.87331 7.99917 6.3535C8.92765 1.47168 13.3364 0 17.284 0C19.3045 0 21.944 0.537295 23.5382 2.06732C25.5588 3.95346 25.366 6.47031 25.366 9.2091V15.6794C25.366 17.624 26.1719 18.4765 26.931 19.5277C27.1996 19.9014 27.2581 20.3512 26.9193 20.6314C26.0726 21.3379 24.5659 22.6519 23.7368 23.3878L23.7251 23.3761" fill="black"/>
</svg>
