<svg width="33" height="32" viewBox="0 0 33 32" fill="none" xmlns="http://www.w3.org/2000/svg">
<path d="M16.1001 3V29" stroke="#FA8232" stroke-width="2" stroke-linecap="round" stroke-linejoin="round"/>
<path d="M23.1001 11C23.1001 10.3434 22.9708 9.69321 22.7195 9.08658C22.4682 8.47996 22.0999 7.92876 21.6356 7.46447C21.1713 7.00017 20.6201 6.63188 20.0135 6.3806C19.4069 6.12933 18.7567 6 18.1001 6H13.6001C12.274 6 11.0022 6.52678 10.0646 7.46447C9.12688 8.40215 8.6001 9.67392 8.6001 11C8.6001 12.3261 9.12688 13.5979 10.0646 14.5355C11.0022 15.4732 12.274 16 13.6001 16H19.1001C20.4262 16 21.6979 16.5268 22.6356 17.4645C23.5733 18.4021 24.1001 19.6739 24.1001 21C24.1001 22.3261 23.5733 23.5979 22.6356 24.5355C21.6979 25.4732 20.4262 26 19.1001 26H13.1001C11.774 26 10.5022 25.4732 9.56456 24.5355C8.62688 23.5979 8.1001 22.3261 8.1001 21" stroke="#FA8232" stroke-width="2" stroke-linecap="round" stroke-linejoin="round"/>
</svg>
